<svg width="23" height="19" viewBox="0 0 23 19" fill="none" xmlns="http://www.w3.org/2000/svg">
<path d="M22.2812 7H19.4297L14.3906 1.10156C14.0391 0.710938 13.4531 0.671875 13.0625 0.984375C12.6719 1.33594 12.6328 1.92188 12.9453 2.3125L16.9688 7H5.99219L10.0156 2.3125C10.3281 1.92188 10.2891 1.33594 9.89844 0.984375C9.50781 0.671875 8.92188 0.710938 8.57031 1.10156L3.53125 7H0.71875C0.445312 7 0.25 7.23438 0.25 7.46875V8.40625C0.25 8.67969 0.445312 8.875 0.71875 8.875H1.42188L2.51562 16.6484C2.63281 17.5859 3.41406 18.25 4.35156 18.25H18.6094C19.5469 18.25 20.3281 17.5859 20.4453 16.6484L21.5391 8.875H22.2812C22.5156 8.875 22.75 8.67969 22.75 8.40625V7.46875C22.75 7.23438 22.5156 7 22.2812 7ZM18.6094 16.375H4.35156L3.33594 8.875H19.625L18.6094 16.375ZM12.4375 11.0625C12.4375 10.5547 12.0078 10.125 11.5 10.125C10.9531 10.125 10.5625 10.5547 10.5625 11.0625V14.1875C10.5625 14.7344 10.9531 15.125 11.5 15.125C12.0078 15.125 12.4375 14.7344 12.4375 14.1875V11.0625ZM16.8125 11.0625C16.8125 10.5547 16.3828 10.125 15.875 10.125C15.3281 10.125 14.9375 10.5547 14.9375 11.0625V14.1875C14.9375 14.7344 15.3281 15.125 15.875 15.125C16.3828 15.125 16.8125 14.7344 16.8125 14.1875V11.0625ZM8.0625 11.0625C8.0625 10.5547 7.63281 10.125 7.125 10.125C6.57812 10.125 6.1875 10.5547 6.1875 11.0625V14.1875C6.1875 14.7344 6.57812 15.125 7.125 15.125C7.63281 15.125 8.0625 14.7344 8.0625 14.1875V11.0625Z" fill="#F17228"/>
</svg>
